<svg enable-background="new 0 0 24 24" height="22" viewBox="0 0 24 24" width="22" fill="#ffb200" xmlns="http://www.w3.org/2000/svg"><path d="m15.208 17.7c-.981 0-1.879-.434-2.292-1.113l-.916-1.505-.917 1.505c-.412.679-1.31 1.113-2.291 1.113h-5.968v4.375c0 .245.229.462.55.511l8.47 1.4c.046.007.092.014.147.014h.009.009c.046 0 .092-.007.147-.014l8.47-1.4c.312-.049.541-.266.541-.511v-4.375z"/><path d="m22.312 16.3h-7.106c-.267 0-.51-.118-.623-.303l-3.203-5.25c-.111-.181-.077-.394.086-.55s.429-.229.683-.185l8.476 1.4c.231.038.42.164.5.334l1.834 3.85c.077.161.046.34-.083.481-.129.14-.339.223-.564.223z"/><path d="m8.794 16.3h-7.106c-.224 0-.435-.083-.563-.224-.129-.14-.16-.32-.083-.481l1.834-3.85c.081-.17.269-.296.5-.334l8.476-1.4c.255-.043.52.03.683.185.163.156.196.369.086.55l-3.203 5.25c-.114.186-.357.304-.624.304z"/><path d="m12 8c-.553 0-1-.448-1-1v-6c0-.552.447-1 1-1s1 .448 1 1v6c0 .552-.447 1-1 1z"/><path d="m12 8c-.215 0-.43-.069-.609-.208l-3.25-2.5c-.439-.336-.52-.964-.184-1.402.338-.438.965-.521 1.402-.183l2.641 2.031 2.641-2.031c.438-.338 1.065-.254 1.402.183.336.438.255 1.066-.184 1.402l-3.25 2.5c-.179.139-.394.208-.609.208z"/></svg>